<svg xmlns="http://www.w3.org/2000/svg" xmlns:xlink="http://www.w3.org/1999/xlink" width="800" height="700" viewBox="0 0 800 700">
  <defs>
    <clipPath id="clip-path">
      <path id="Path_73368" data-name="Path 73368" d="M189.064,275.841l-3.988-1.994c-1.329-.665-2.991-1.329-4.32-1.994-1.994-1.329-2.991-3.323-3.988-5.982a30.021,30.021,0,0,1-1.329-9.3c0-2.991,0-6.314.332-9.637.332-3.655,1-7.311,1.329-10.634.332-2.658.665-5.982,1-8.64v-9.969a31.053,31.053,0,0,1,.665-7.975c.665-2.991,1.994-5.982,2.326-8.64a37.585,37.585,0,0,1,1.329-4.985,20.293,20.293,0,0,0,1-4.32c0-.665.332-1.662.332-2.326l-11.963-8.64-8.972,7.643v10.634a27.681,27.681,0,0,1-1,7.311,148.246,148.246,0,0,0-2.326,16.948c-.332,5.649.332,10.634,1,16.283,1,5.649,1.994,10.966,2.658,16.615a46.774,46.774,0,0,1-1,16.615l6.978,12.96,24.259-1.329Z" transform="translate(-159.4 -180.8)" fill="#ffb9b9"/>
    </clipPath>
    <clipPath id="clip-path-2">
      <path id="Path_73372" data-name="Path 73372" d="M184.859,130.387c.332,1.329,1.329,3.323,1.329,3.988.332.332,4.985,3.323,5.649,4.32.665,1.329-1.994,1.994-1.994,1.994a14.025,14.025,0,0,0,0,5.317c.332,2.326,1.329,3.323,1,5.317-.332,1.329-1,3.323-2.658,3.655-1,.332-1.662,0-3.988-.665a24.837,24.837,0,0,1-3.655-.665,38,38,0,0,0-1,9.3,51.565,51.565,0,0,0,2.326,14.622c-7.311-3.988-14.622-8.308-21.6-12.3.665-.332,7.311-5.317,6.979-12.628a11.189,11.189,0,0,0-2.326-6.646,5.831,5.831,0,0,1-3.655-2.326c-1-1.662-1.329-4.985,0-5.317a3.018,3.018,0,0,1,3.655,1.329c1.662-.332,2.658-3.655,3.323-5.317,1.662-3.655.665-7.311,0-10.966,0-.665,1.994,1,2.658,1.329C173.228,126.732,177.548,129.058,184.859,130.387Z" transform="translate(-160.268 -123.253)"/>
    </clipPath>
    <clipPath id="clip-path-4">
      <path id="Path_73376" data-name="Path 73376" d="M202.665,228.414c-.332-1.662-.665-3.323-1-5.317-.665-3.323-1-6.979-1.662-10.3l-1-9.969c-.332-3.323,0-6.979-.332-9.969-.332-1.662-.332-3.323-.665-5.649,0-1.329-.332-2.658-.332-3.988s2.991-21.268,3.323-22.929L185.053,157.3l-19.274,5.982c-1.662,2.658-3.323,5.982-4.985,9.3a19.389,19.389,0,0,0-1.994,8.64,51.308,51.308,0,0,0,1.329,9.969,52.1,52.1,0,0,0,3.323,9.3,7.821,7.821,0,0,1,.665,2.658v3.988l-1,10.966c-.332,2.991-.665,6.314-1.329,9.637-.332,1.994-1.329,7.643-1.329,8.308v1c0,1.329,1.994,1.329,2.991,1.329,2.658.665,5.317,2.658,7.975,3.323,2.991,1,6.314.665,9.637.665s6.978.332,10.3,0c2.326-.332,5.649-.332,7.975-1.662,1.329-.665,1.994-2.326,2.326-3.655A18.738,18.738,0,0,1,203,233.067a2.52,2.52,0,0,0,.665-1.329A12.652,12.652,0,0,0,202.665,228.414Z" transform="translate(-158.8 -157.3)"/>
    </clipPath>
    <clipPath id="clip-path-5">
      <path id="Path_73378" data-name="Path 73378" d="M195.4,216.437a5.654,5.654,0,0,0,2.326-.332c.332,0,.332,0,.665-.332s0-1.329,0-1.662c-1-4.32-.665-9.637-.665-14.289,0-5.317.332-9.969.665-15.286a45.406,45.406,0,0,1,.665-6.314c.665-1.994,1.662-3.988,2.658-6.314a11.4,11.4,0,0,0-1-9.3c-1-1.994-2.658-3.323-4.32-5.317a51.12,51.12,0,0,0-3.988-4.32c-1.662-1.662-3.323-3.655-5.317-5.649-1.662-1.662-3.323-3.655-5.317-5.649-1.662-1.329-3.323-2.658-5.317-3.988a26.492,26.492,0,0,0-5.317-2.658c-2.658-.665-5.982.665-7.975,2.658-2.991,2.658-3.988,6.979-4.32,10.966a46.8,46.8,0,0,0-.332,6.979s-1.329-1.329,6.978,33.9a4.724,4.724,0,0,0,.665,1.994c.332.665.665,1,.665,1.662s-.332,1-1,1.662a3,3,0,0,0-.332,1.662c0,.665-.332,1,0,1.662.332,1,1.329,1.662,1.329,2.658,0,4.32-4.32,11.963-4.32,12.628s1,.665,1.329,1a16.5,16.5,0,0,0,5.982.665H184.1Z" transform="translate(-158.431 -134.848)"/>
    </clipPath>
    <clipPath id="clip-_8_Hire_ReactJS_Developers">
      <rect width="800" height="700"/>
    </clipPath>
  </defs>
  <g id="_8_Hire_ReactJS_Developers" data-name="8 Hire ReactJS Developers" clip-path="url(#clip-_8_Hire_ReactJS_Developers)">
    <rect width="800" height="700" fill="rgba(255,255,255,0)"/>
    <g id="Group_18246" data-name="Group 18246" transform="translate(-1112.265 -285.856)">
      <g id="Group_18251" data-name="Group 18251" transform="translate(1380.846 327.135)">
        <ellipse id="Ellipse_251" data-name="Ellipse 251" cx="147.411" cy="12.187" rx="147.411" ry="12.187" transform="translate(0 540.935)" fill="#fdf0e9"/>
        <g id="hero_r_img_1_" data-name="hero_r_img (1)" transform="translate(21.177 0)">
          <g id="Group_18197" data-name="Group 18197" transform="translate(0 81.537)">
            <g id="Group_18193" data-name="Group 18193">
              <g id="Group_18192" data-name="Group 18192">
                <g id="Group_18191" data-name="Group 18191">
                  <g id="Group_18190" data-name="Group 18190">
                    <path id="Path_73344" data-name="Path 73344" d="M301.366,533.177H114.608c-16.948,0-29.908-12.628-29.908-29.243V89.543C84.7,72.928,97.66,60.3,114.608,60.3H301.366c16.948,0,29.908,12.628,29.908,29.243v414.39C331.274,520.216,317.981,533.177,301.366,533.177Z" transform="translate(-84.7 -59.968)" fill="#f7f4ee"/>
                    <g id="Group_18188" data-name="Group 18188" transform="translate(0)">
                      <path id="Path_73345" data-name="Path 73345" d="M299.372,73.492A18.651,18.651,0,0,1,318.314,92.1v410.07a18.653,18.653,0,0,1-18.942,18.609H116.934a18.651,18.651,0,0,1-18.942-18.609V92.1a18.653,18.653,0,0,1,18.942-18.609H299.372m0-13.292H116.934C99.322,60.2,84.7,74.489,84.7,91.437v410.07c0,17.28,14.622,31.237,32.234,31.237H299.04c17.612,0,32.234-14.289,32.234-31.237V92.1a32.125,32.125,0,0,0-31.9-31.9Z" transform="translate(-84.7 -60.2)" fill="#3f3d56"/>
                    </g>
                    <g id="Group_18189" data-name="Group 18189" transform="translate(68.123 1.662)">
                      <path id="Path_73346" data-name="Path 73346" d="M215.194,60.7H105.2v7.643c0,7.975,6.979,15.286,15.619,15.286h79.754a15.53,15.53,0,0,0,15.619-15.286V60.7Z" transform="translate(-105.2 -60.7)" fill="#3f3d56"/>
                    </g>
                    <line id="Line_180" data-name="Line 180" x2="42.536" transform="translate(102.684 10.634)" fill="none" stroke="#fef8f4" stroke-linecap="round" stroke-linejoin="round" stroke-miterlimit="10" stroke-width="0.764"/>
                  </g>
                </g>
              </g>
            </g>
            <g id="Group_18196" data-name="Group 18196" transform="translate(25.588 76.764)">
              <g id="Group_18195" data-name="Group 18195">
                <g id="Group_18194" data-name="Group 18194">
                  <path id="Path_73347" data-name="Path 73347" d="M259.884,282.021H119.317A26.805,26.805,0,0,1,92.4,255.1V110.217A26.805,26.805,0,0,1,119.317,83.3H259.884A26.805,26.805,0,0,1,286.8,110.217V255.436A26.735,26.735,0,0,1,259.884,282.021Z" transform="translate(-92.4 -83.3)" fill="#3f3d56"/>
                </g>
              </g>
              <g id="reactjs-icon" transform="translate(27.581 36.22)">
                <circle id="Ellipse_4004" cx="12.96" cy="12.96" r="12.96" transform="translate(57.041 48.814)" fill="#fff9f5"/>
                <g id="Group_967" transform="translate(0 0)">
                  <path id="Path_8133" d="M2116.485,6747.8c17.612,0,33.9,2.326,46.19,6.978,14.954,5.318,23.926,12.628,23.926,19.606,0,7.312-9.637,15.62-25.588,20.6-11.964,3.988-27.914,6.313-44.529,6.313-16.948,0-33.231-1.993-45.195-6.313-15.619-5.318-24.591-13.292-24.591-20.6,0-6.979,8.64-14.621,23.261-19.606,12.3-4.652,28.912-6.978,46.524-6.978Z" transform="translate(-2046.7 -6712.574)" fill="none" stroke="#fff" stroke-width="2"/>
                  <path id="Path_8134" d="M2073.774,6785.718c8.64-15.287,18.941-27.915,28.911-36.555,11.631-10.3,23.261-14.288,28.91-10.635,6.314,3.656,8.64,16.284,5.317,32.567-2.326,12.295-8.64,27.248-16.948,41.538-8.64,14.954-18.277,27.914-27.913,36.222-11.964,10.634-24.259,14.621-30.241,10.966-5.982-3.323-8.307-14.954-5.649-29.908,2.658-12.958,8.973-28.908,17.612-44.195Z" transform="translate(-2027.251 -6737.199)" fill="none" stroke="#fff" stroke-width="2"/>
                  <path id="Path_8135" d="M2073.734,6812.264c-8.64-15.287-14.954-30.24-17.28-43.2-2.99-15.618-1-27.25,5.318-30.572,6.313-3.656,18.277.666,30.572,11.631,9.305,8.308,19.274,20.936,27.582,35.558,8.64,14.954,14.954,29.574,17.613,42.535,2.99,15.95.665,27.914-5.649,31.9-5.981,3.323-16.948-.333-28.579-10.3C2093.34,6841.175,2082.706,6827.551,2073.734,6812.264Z" transform="translate(-2027.21 -6737.162)" fill="none" stroke="#fff" stroke-width="2"/>
                </g>
              </g>
            </g>
          </g>
          <g id="Group_18242" data-name="Group 18242" transform="translate(33.205)">
            <g id="Group_18239" data-name="Group 18239" transform="translate(0 1.86)">
              <path id="Path_73426" data-name="Path 73426" d="M187.433,52.04c-46.523-1.662-110.659,32.9-88.062,116.973-.332,7.311,3.655,11.963,8.308,10.634,4.32-1.329.665-14.954.665-14.954,7.975-62.806,22.265-73.44,46.856-73.44H213.02c14.289,1.994,40.209,11.963,44.2,62.474l14.622,2.659C272.836,120.5,263.864,55.363,187.433,52.04Z" transform="translate(-94.692 0.388)" fill="#5275a0" opacity="0.2"/>
              <path id="Path_73427" data-name="Path 73427" d="M187.433,49.94c-46.523-1.662-110.659,32.9-88.062,116.973l8.972-3.988c7.975-62.806,22.265-73.44,46.856-73.44H213.02c14.289,1.994,41.206,14.954,44.862,64.8h13.957C272.836,118.063,263.864,52.931,187.433,49.94Z" transform="translate(-94.692 -4.491)" fill="#f56d2a"/>
              <path id="Path_73428" data-name="Path 73428" d="M124.678,50.3,117.7,65.586s.665,8.64,9.3,8.308c8.308-.332,9.637-3.988,9.637-3.988l1-17.612Z" transform="translate(-41.243 -3.522)" fill="#ffb9b9"/>
              <path id="Path_73429" data-name="Path 73429" d="M161.709,62.842c-7.975,13.957-11.3,18.277-21.6,20.271-13.292,2.658-28.246-6.314-21.268-28.579,5.649-18.277,14.289-15.286,22.929-14.622C149.413,40.909,170.349,48.22,161.709,62.842Z" transform="translate(-42.716 -29.024)" fill="#ffb9b9"/>
              <path id="Path_73430" data-name="Path 73430" d="M131.99,59.075c-1.994-1-4.985,0-6.646,1.329a7.334,7.334,0,0,0-1.662,6.978,6.337,6.337,0,0,0-5.982,6.646c-1.994-5.317-1-10.3-1.329-15.951-.332-5.317,0-10.966,3.323-15.286a12.651,12.651,0,0,1,5.317-3.655c7.311-3.655,16.615-3.988,23.926-.332,1.329.665,5.649,2.991,10.634,1.662,10.3-2.326,16.283,4.32,9.969,10.966a11.166,11.166,0,0,1,5.317,3.323,1.011,1.011,0,0,1,0,1.329c-.332.332-.665.332-1,.665a10.451,10.451,0,0,1-5.649.332c.665.665,4.32.665,5.649,2.991,2.991,5.982-8.972,2.658-10.634,2.326,1.994.332,7.643,4.985,5.982,7.975-.332.665-7.975,4.985-15.619-3.988a15.747,15.747,0,0,0-6.978-4.985c-1.994-.665-4.32.332-6.314,1-1.329.665-5.317,2.658-6.646,1.329C132.986,63.063,134.648,60.4,131.99,59.075Z" transform="translate(-44.566 -36.223)" fill="#440c01"/>
              <path id="Path_73431" data-name="Path 73431" d="M146.194,81.507c-1.994,7.311-3.988,7.975-1.662,8.972s4.32-2.658,4.32-2.658l11.631,8.64s-2.659-13.625-4.32-14.289C154.5,80.51,146.194,81.507,146.194,81.507Z" transform="translate(18.658 68.287)" fill="#ffb9b9"/>
              <path id="Path_73432" data-name="Path 73432" d="M105.072,83.9c1.329,3.655,1.994,3.655,3.988,8.308,3.988,8.64-5.649,22.265-11.3,7.311C96.1,95.531,96.1,87.888,96.1,87.888Z" transform="translate(-91.421 74.534)" fill="#ffb9b9"/>
            </g>
            <g id="Group_18241" data-name="Group 18241" transform="translate(69.006)">
              <g id="Group_18240" data-name="Group 18240">
                <path id="Path_73433" data-name="Path 73433" d="M146.756,36.781c-5.649.665-10.634-1.662-16.283-1a21.8,21.8,0,0,0-11.631,5.982c-1.329,1,.332,2.991,1.662,2.326,4.985-2.658,8.972-5.649,14.954-5.317,3.988.332,7.975,1.662,11.963,0,1.662,0,1-2.658-.665-1.994Z" transform="translate(-108.732 -35.664)" fill="#440c01"/>
                <path id="Path_73434" data-name="Path 73434" d="M122.577,38.246a13.484,13.484,0,0,0-6.978,10.3c-.332,3.323-.332,11.3,2.991,12.96,1.329.665,2.326-.665,1.329-1.662-1.994-2.326-1.994-7.975-1.994-10.966a11.756,11.756,0,0,1,5.317-8.972c1-1,.332-1.994-.665-1.662Z" transform="translate(-115.458 -29.817)" fill="#440c01"/>
              </g>
            </g>
          </g>
          <circle id="Ellipse_246" data-name="Ellipse 246" cx="34.56" cy="34.56" r="34.56" transform="translate(41.319 422.549)" fill="#3f3d56"/>
          <circle id="Ellipse_247" data-name="Ellipse 247" cx="34.56" cy="34.56" r="34.56" transform="translate(136.311 422.549)" fill="#3f3d56"/>
          <g id="Group_18244" data-name="Group 18244" transform="translate(57.839 435.972)">
            <g id="Group_18243" data-name="Group 18243">
              <path id="Path_73435" data-name="Path 73435" d="M104.426,170.5a2.271,2.271,0,0,0-2.326,2.326v10.966a2.326,2.326,0,1,0,4.652,0V172.826a2.271,2.271,0,0,0-2.326-2.326Z" transform="translate(-102.1 -156.626)" fill="#fff"/>
              <path id="Path_73436" data-name="Path 73436" d="M121.18,170.23l1.662-3.323v-.332h-.332l-1.662,3.323a13.776,13.776,0,0,0-5.317-1,16.525,16.525,0,0,0-5.317,1l-1.662-3.323c0-.332-.332-.332-.332,0-.332,0-.332.332,0,.332l1.662,3.323a11.57,11.57,0,0,0-4.32,3.655,10.3,10.3,0,0,0-1.662,5.649h23.594a12.249,12.249,0,0,0-1.662-5.649A17.464,17.464,0,0,0,121.18,170.23Zm-10.3,4.985c-.332.332-.332.332-.665.332s-.332,0-.665-.332-.332-.332-.332-.665,0-.332.332-.665.332-.332.665-.332.332,0,.665.332.332.332.332.665S111.211,175.214,110.878,175.214Zm10.634,0c-.332.332-.332.332-.665.332s-.332,0-.665-.332-.332-.332-.332-.665,0-.332.332-.665.332-.332.665-.332.332,0,.665.332.332.332.332.665S121.845,175.214,121.512,175.214Z" transform="translate(-97.918 -166.325)" fill="#fff"/>
              <path id="Path_73437" data-name="Path 73437" d="M103.831,187.88a4.724,4.724,0,0,0,.665,1.994c.665.665,2.029.665,3.026.665h1.662v5.982a2.326,2.326,0,1,0,4.652,0v-5.982h3.323v5.982a2.326,2.326,0,1,0,4.652,0v-5.982h3.026a4.724,4.724,0,0,0,1.994-.665c.665-.665.665-1,.665-1.994V170.6H103.9v17.28Z" transform="translate(-97.921 -156.394)" fill="#fff"/>
              <path id="Path_73438" data-name="Path 73438" d="M113.626,170.5a2.271,2.271,0,0,0-2.326,2.326v10.966a2.326,2.326,0,1,0,4.652,0V172.826a2.271,2.271,0,0,0-2.326-2.326Z" transform="translate(-80.728 -156.626)" fill="#fff"/>
            </g>
          </g>
          <g id="Group_18245" data-name="Group 18245" transform="translate(153.864 435.972)">
            <path id="Path_73439" data-name="Path 73439" d="M142.1,202.8c-6.314,0-11.3-12.628-11.3-19.606,0-10.634,7.975-12.96,10.966-12.96a17.525,17.525,0,0,1,3.988,1,8.454,8.454,0,0,0,2.326.665,5.615,5.615,0,0,0,1.662-.665,11.326,11.326,0,0,1,5.317-1.329h0c1.329,0,6.314.332,8.972,4.32l.665,1-1,.665a7.6,7.6,0,0,0-3.655,6.646,8.422,8.422,0,0,0,3.988,6.978c.665.332,1,.665,1,1.329s-3.988,11.631-9.969,11.631a9.833,9.833,0,0,1-3.323-.665,7.936,7.936,0,0,0-2.991-.665,8.453,8.453,0,0,0-2.326.665,16.492,16.492,0,0,1-4.32,1Z" transform="translate(-130.8 -160.263)" fill="#fff"/>
            <path id="Path_73440" data-name="Path 73440" d="M144.02,167c0,5.649-3.655,9.637-7.975,9.3C135.38,171.32,140.032,167,144.02,167Z" transform="translate(-118.765 -167)" fill="#fff"/>
          </g>
        </g>
      </g>
      <g id="Group_18250" data-name="Group 18250" transform="translate(1663.695 535.947)">
        <ellipse id="Ellipse_250" data-name="Ellipse 250" cx="86.998" cy="12.187" rx="86.998" ry="12.187" transform="translate(0 267.901)" fill="#fdf0e9"/>
        <g id="Group_56951" transform="translate(9.734)">
          <g id="Group_56943" transform="translate(0)">
            <g id="Group_56935" transform="translate(0 126.61)">
              <g id="Group_56932" transform="translate(54.583)">
                <g id="Group_56931" transform="translate(66.324 109.662)">
                  <path id="Path_55909" d="M26.874,182.56,17.237,169.6,7.6,177.575l9.3,13.292Z" transform="translate(-6.465 -169.6)" fill="#ffb9b9"/>
                  <path id="Path_55910" d="M25.366,173.2l8.972,8.308a3.151,3.151,0,0,1-.665,4.32L8.751,205.1a2.632,2.632,0,0,1-3.655-.332,2.73,2.73,0,0,1-.332-2.326l8.308-19.274Z" transform="translate(-4.626 -161.237)" fill="#333643"/>
                </g>
                <path id="Path_55911" d="M7.6,137.265l23.926,66.462,42.2,57.822,20.6-11.631-35.225-51.84L41.163,136.6Z" transform="translate(-7.6 -136.6)" fill="#333643"/>
              </g>
              <g id="Group_56934" transform="translate(0 0.332)">
                <g id="Group_56933" transform="translate(0 121.625)">
                  <path id="Path_55912" d="M49.6,192.574l5.982-15.286L43.946,173.3,37.3,188.586Z" transform="translate(-12.957 -173.3)" fill="#ffb9b9"/>
                  <path id="Path_55913" d="M76.436,182.685l-1.994,11.631a3.39,3.39,0,0,1-3.988,1.994l-29.908-10.3a2.742,2.742,0,0,1-1.662-3.323,4,4,0,0,1,1.662-1.662L61.482,177.7Z" transform="translate(-38.8 -163.078)" fill="#2e313f"/>
                </g>
                <path id="Path_55914" d="M51.634,137.032l9.3,11.3-20.6,46.856L19.4,263.642l23.926,7.975,23.262-70.782L99.154,136.7H88.188Z" transform="translate(2.949 -136.7)" fill="#2e313f"/>
              </g>
            </g>
            <g id="Group_56938" transform="translate(37.636 50.843)">
              <g id="Group_18198" data-name="Group 18198">
                <g id="Group_56937_8_" transform="translate(15.926)">
                  <g id="Group_56936_8_">
                    <path id="Path_55915_8_" d="M29.955,113.8a9.951,9.951,0,0,0-3.323,1.329,14.315,14.315,0,0,0-7.643,13.292v66.13a77.954,77.954,0,0,0,48.517-2.991l-.332-66.13c0-.665,2.326-6.646,1.662-7.311a14.36,14.36,0,0,0-7.311-3.988H29.955Z" transform="translate(-18.964 -113.8)" fill="#f56d2a"/>
                  </g>
                </g>
                <path id="Path_55916_8_" d="M45.383,116.6,29.1,159.468l32.234-7.975Z" transform="translate(-29.1 -107.295)" fill="#f56d2a"/>
              </g>
            </g>
            <g id="Group_56942" transform="translate(52.129)">
              <g id="Group_56940" transform="translate(13.753 30.572)">
                <g id="Group_56939" transform="translate(3.988 1.662)">
                  <path id="Path_55917" d="M24.2,117.5l13.957-9.3,2.326,1.662-.332,16.948a8.086,8.086,0,0,1-7.975,7.975,7.872,7.872,0,0,1-7.975-7.975h0Z" transform="translate(-24.2 -108.2)" fill="#ffb9b9"/>
                </g>
                <path id="Path_55918" d="M24.237,125.582s17.588.4,15.262-17.882l-4.32,2.991-10.609,8.245v6.646Z" transform="translate(-20.557 -107.7)" fill="#f99f9f"/>
                <path id="Path_55919" d="M23,120.346l8.64,8.64L39.615,113.7H35.628Z" transform="translate(-15.357 -93.761)" fill="#e86828"/>
                <path id="Path_55920" d="M35.643,120.114,28,127.092l.665-13.292h2.991Z" transform="translate(-28 -93.529)" fill="#e86828"/>
              </g>
              <path id="Path_55921" d="M30.1,109.71c0,2.658,1.994,4.985,4.32,4.985,2.658,0,4.985-1.994,4.985-4.32,0-2.658-1.994-4.985-4.32-4.985h0C32.094,104.725,30.1,106.719,30.1,109.71Z" transform="translate(-24.987 -82.792)" fill="#ffb9b9"/>
              <path id="Path_55922" d="M32.577,101.6s-9.3,14.289,4.985,15.286l3.323-7.643L37.894,101.6Z" transform="translate(-24.805 -91.298)" fill="#0b4870"/>
              <path id="Path_55923" d="M37.392,135.531h.332A12.778,12.778,0,0,0,51.017,122.9l.332-16.948a3.33,3.33,0,0,0-3.323-3.323l-17.28-.332a6.031,6.031,0,0,0-6.314,5.982h0L24.1,122.571a14.257,14.257,0,0,0,13.292,12.96Z" transform="translate(-16.993 -89.672)" fill="#ffb9b9"/>
              <path id="Path_55924" d="M25.926,117.109c-1.329-1.662-9.969-7.975-2.326-16.283,3.655-3.988,7.643-1.662,11.631,0a26.5,26.5,0,0,1,11.3-2.326c5.317.332,8.972,3.323,11.3,7.643h0a9.559,9.559,0,0,1,8.308,6.646c4.32,11.3-11.963,25.92-11.963,25.92V124.42c-6.646-.332-6.979-6.646-6.314-9.969a64.886,64.886,0,0,1-19.606,1s.665,1.994-1.329.332l-1-.665c-1-1.329.332,2.658,0,1.994Z" transform="translate(-20.481 -98.5)" fill="#1d3570"/>
              <g id="Group_56941" transform="translate(31.366 23.262)">
                <circle id="Ellipse_200" cx="4.985" cy="4.985" r="4.985" fill="#ffb9b9"/>
              </g>
            </g>
          </g>
          <path id="Path_73348" data-name="Path 73348" d="M90.8,222.105H34.306A19.642,19.642,0,0,1,14.7,202.5V146.006A19.642,19.642,0,0,1,34.306,126.4H90.8a19.642,19.642,0,0,1,19.606,19.606V202.5A19.642,19.642,0,0,1,90.8,222.105Z" transform="translate(7.317 -33.686)" fill="#3f3d56"/>
          <g id="Group_18200" data-name="Group 18200" transform="translate(41.919 117.638)">
            <g id="Group_18199" data-name="Group 18199">
              <path id="Path_73349" data-name="Path 73349" d="M26.224,167.131A26.688,26.688,0,0,0,35.2,165.8a5.439,5.439,0,0,1,3.988.665l5.982,4.32c6.646-3.323,10.634-7.643,14.289-14.289l-3.988-5.649a4.367,4.367,0,0,1-1-3.988,26.688,26.688,0,0,0,1.329-8.972,3.839,3.839,0,0,1,3.988-3.988h9.3a3.839,3.839,0,0,1,3.988,3.988,46.8,46.8,0,0,1-46.856,46.856,3.839,3.839,0,0,1-3.988-3.988v-9.3A3.925,3.925,0,0,1,26.224,167.131Z" transform="translate(-22.2 -133.9)" fill="#fff"/>
            </g>
          </g>
          <g id="Group_56950" transform="translate(85.211 51.491)">
            <g id="Group_56949">
              <g id="Group_56947" transform="translate(3.046 60.098)">
                <g id="Group_56946">
                  <path id="Path_55926" d="M32.911,136.3c3.655,2.991,3.323,7.311.332,11.3-2.991,3.655-7.975,5.982-11.631,2.658s-4.32-8.64-1.329-12.3C23.607,133.973,29.256,133.309,32.911,136.3Z" transform="translate(-18.4 -126.595)" fill="#ffb9b9"/>
                  <path id="Path_55927" d="M31.833,140.122,25.187,148.1a5.151,5.151,0,0,1-6.979.665,5.151,5.151,0,0,1-.665-6.979l6.646-7.975a5.151,5.151,0,0,1,6.979-.665A5.151,5.151,0,0,1,31.833,140.122Z" transform="translate(-9.346 -132.08)" fill="#ffb9b9"/>
                </g>
              </g>
              <g id="Group_56948">
                <g id="Group_18201" data-name="Group 18201">
                  <path id="Path_55928_8_" d="M36.021,185.791l-14.289-7.975L38.68,153.557,12.427,133.618c-3.988-3.323-7.311-12.3.332-18.277,2.658-2.658,10.3-1,12.96,1.662l34.56,28.246a7.369,7.369,0,0,1,1.662,7.643Z" transform="translate(-8.162 -113.995)" fill="#f56d2a"/>
                </g>
              </g>
            </g>
          </g>
        </g>
      </g>
      <g id="Group_18249" data-name="Group 18249" transform="translate(1552.665 649.634)">
        <ellipse id="Ellipse_249" data-name="Ellipse 249" cx="67.949" cy="12.187" rx="67.949" ry="12.187" transform="translate(0 270.238)" fill="#fdf0e9"/>
        <g id="Group_18202" data-name="Group 18202" transform="translate(27.084)">
          <path id="Path_73350" data-name="Path 73350" d="M56.967,145.8S78.9,167.4,80.229,175.708s-9.969,20.936-9.969,20.936Z" transform="translate(-9.394 -102.305)" fill="#e86828"/>
          <path id="Path_73351" data-name="Path 73351" d="M94.979,216.774S94.314,228.4,91.988,228.4H66.4s0-3.323,3.988-3.988,10.966-3.655,13.292-8.972C86.671,209.463,94.979,216.774,94.979,216.774Z" transform="translate(-55.381 54.021)" fill="#2e313f"/>
          <path id="Path_73352" data-name="Path 73352" d="M85.579,216.774S84.914,228.4,82.588,228.4H57s0-3.323,3.988-3.988,10.966-3.655,13.292-8.972C77.6,209.463,85.579,216.774,85.579,216.774Z" transform="translate(-14.744 54.021)" fill="#333643"/>
          <path id="Path_73353" data-name="Path 73353" d="M56.6,188.58s3.655,23.926,17.612,65.8,15.951,60.48,15.951,60.48l14.954-.332s0-45.859-6.314-67.126c-6.314-20.936-1.329-76.1-1.329-76.1Z" transform="translate(-32.953 -43.066)" fill="#333643"/>
          <path id="Path_73354" data-name="Path 73354" d="M60.52,171.7a552.486,552.486,0,0,0,5.649,79.754c6.314,43.865,3.988,62.474,3.988,62.474l14.954.332s8.972-43.865,6.314-65.8c-2.326-21.932,11.963-75.434,11.963-75.434Z" transform="translate(-44.184 -42.137)" fill="#2e313f"/>
          <path id="Path_73355" data-name="Path 73355" d="M81.748,158.945l-6.979,5.317L64.8,162.268a78.023,78.023,0,0,1,1.329-8.308V153.3c.665-2.991,1-5.649,1-5.649l9.3-4.985L79.754,141s-.332,2.991-.332,3.655C79.422,153.628,81.748,158.945,81.748,158.945Z" transform="translate(-36.833 -113.456)" fill="#ffb9b9"/>
          <path id="Path_73356" data-name="Path 73356" d="M68.662,148.075c.332,0,13.957-3.988,15.286-3.323,1.329.332,2.326,3.323,2.326,3.323L64.342,153.06C64.01,152.728,65.671,149.072,68.662,148.075Z" transform="translate(-39.698 -104.913)" fill="#e86828"/>
          <path id="Path_73357" data-name="Path 73357" d="M109.906,236.631c-2.326,10.3-40.209,11.631-50.511,1.994-1-1-1-6.314-.665-12.628.665-12.96,3.323-33.231,3.323-43.533a70.4,70.4,0,0,1,1.662-14.622,119.051,119.051,0,0,1,4.985-17.28s18.609-5.982,21.932-4.985C107.58,150.9,112.232,226.33,109.906,236.631Z" transform="translate(-44.721 -103.08)" fill="#f56d2a"/>
          <path id="Path_73358" data-name="Path 73358" d="M68.486,211.748c.665-12.96,3.323-33.231,3.323-43.533a70.4,70.4,0,0,1,1.662-14.622L84.437,151.6C85.1,151.932,96.068,196.794,68.486,211.748Z" transform="translate(-54.477 -88.831)" fill="#e86828"/>
          <path id="Path_73359" data-name="Path 73359" d="M73.45,165.284a2.884,2.884,0,0,1-.665,2.991c-1.662,1.329-2.658,2.991-2.326,4.985.332,1.329,3.655,3.655,5.317,3.323,1.329-.332,3.655-2.326,3.323-2.991s1.662-6.646-1.329-8.972S73.45,165.284,73.45,165.284Z" transform="translate(-53.127 -60.644)" fill="#ffb9b9"/>
          <path id="Path_73360" data-name="Path 73360" d="M100.688,146.4s-10.966,1.662-19.606,14.622S66.46,183.286,68.454,187.939c1.662,4.32,16.283,20.6,18.609,20.6s6.646-1.662,6.978-5.982c0,0-10.3-15.619-8.308-17.612,1-1,13.292-10.966,15.286-6.646C103.678,185.945,100.688,146.4,100.688,146.4Z" transform="translate(-68.069 -100.911)" fill="#f56d2a"/>
          <path id="Path_73361" data-name="Path 73361" d="M78.408,144.158c-1.994,3.655-9.637,7.311-12.96,8.64v-.665c.665-2.991,1-5.649,1-5.649l9.3-4.985C77.743,142.165,79.073,142.5,78.408,144.158Z" transform="translate(-35.82 -112.294)" fill="#f99f9f"/>
          <path id="Path_73362" data-name="Path 73362" d="M65.52,162.375s16.948,5.317,19.939-5.317,7.643-17.28-2.991-20.936-14.289-.332-15.951,2.658C64.523,142.436,61.2,160.713,65.52,162.375Z" transform="translate(-39.547 -128.517)" fill="#ffb9b9"/>
          <path id="Path_73363" data-name="Path 73363" d="M62.311,142.311s1,12.628,3.323,11.963,4.985-1,4.32,2.658c-.332,3.655-3.988,8.308,3.655,8.972,7.975.665,19.274-20.271,17.28-24.591C85.24,130.68,53.339,128.686,62.311,142.311Z" transform="translate(-32.683 -132.711)" fill="#440c01"/>
        </g>
      </g>
      <g id="Group_18248" data-name="Group 18248" transform="translate(1186 540.038)">
        <ellipse id="Ellipse_248" data-name="Ellipse 248" cx="67.949" cy="12.187" rx="67.949" ry="12.187" transform="translate(0 287.095)" fill="#fdf0e9"/>
        <g id="Group_18238" data-name="Group 18238" transform="translate(19.706)">
          <g id="Group_18232" data-name="Group 18232" transform="translate(0 260.759)">
            <path id="Path_73380" data-name="Path 73380" d="M213.565,178.2l-.665,17.612,14.954.332,1.994-16.283Z" transform="translate(-207.251 -178.2)" fill="#ffba94"/>
            <path id="Path_73381" data-name="Path 73381" d="M212.554,181.9l-4.985,23.262,11.963,1.994.665-1.994,2.991,3.323,24.259,3.323s1.329-3.988-.665-5.649c-1.994-1.329-6.979-3.988-6.979-3.988l-9.969-9.637.665-9.969Z" transform="translate(-207.569 -169.605)" fill="#333643"/>
          </g>
          <g id="Group_18233" data-name="Group 18233" transform="translate(57.157 263.75)">
            <path id="Path_73382" data-name="Path 73382" d="M197.3,180.1l1.994,17.28,14.954-1.662-1-16.615Z" transform="translate(-196.968 -179.1)" fill="#ffba94"/>
            <path id="Path_73383" data-name="Path 73383" d="M190.606,181.9l-.332,27.914h11.963l.332-2.326,3.655,2.658h24.591s.665-3.988-1.662-5.317c-1.994-1-7.643-2.991-7.643-2.991l-11.3-8.64-1-10.966Z" transform="translate(-190.274 -172.595)" fill="#333643"/>
          </g>
          <path id="Path_73384" data-name="Path 73384" d="M185.637,128.433s7.975-5.649,11.631,0-7.643,18.942-17.612,20.6c0,0-5.317-14.289,1.994-23.262C189.292,117.466,185.637,128.433,185.637,128.433Z" transform="translate(-58.695 -46.456)" fill="#ffb9b9"/>
          <path id="Path_73385" data-name="Path 73385" d="M219.792,131.9l3.323,14.622s-33.231,14.954-38.216,8.64L200.851,131.9Z" transform="translate(-107.472 -25)" fill="#f56d2a"/>
          <path id="Path_73386" data-name="Path 73386" d="M196.2,144.7l3.323,27.249,12.3,100.357h21.268c1.329-26.252,1.329-74.437,1.329-104.345h0c0-14.954.332-21.932.332-21.932h-2.658a33.813,33.813,0,0,1-7.643,2.658c-1-1.994-1.662-3.655-2.326-4.985l-21.6,1Z" transform="translate(-156.655 2.413)" fill="#333643"/>
          <path id="Path_73387" data-name="Path 73387" d="M198.4,157.311l12.3,100.357h15.619C207.7,230.751,207.7,163.957,207.7,163.957L207.04,150Z" transform="translate(-155.532 17.048)" fill="#2e313f"/>
          <path id="Path_73388" data-name="Path 73388" d="M201.4,277.879l5.982.665,16.615,1,35.557-132.259-18.609-2.326L213.7,141.3Z" transform="translate(-198.742 -3.163)" fill="#333643"/>
          <path id="Path_73389" data-name="Path 73389" d="M193.091,117.8l10.3,8.308a7.388,7.388,0,0,1,2.658,4.32l6.978,32.234s3.655,20.271-18.609,13.292L190.433,128.1Z" transform="translate(-115.995 -57.756)" fill="#f56d2a"/>
          <path id="Path_73390" data-name="Path 73390" d="M194.416,188.511l4.985,18.277,6.314,2.326s1.994,7.311,1.994,22.265a16.4,16.4,0,0,0,4.985-1c2.991-1.329-5.982-105.342-5.982-105.342l-5.649-8.64-6.646,2.991Z" transform="translate(-129.284 -61.008)" fill="#e86828"/>
          <path id="Path_73391" data-name="Path 73391" d="M203.4,277.879l6.314.332,3.988-42.868c18.277-66.794,41.206-83.41,41.206-83.41l-11.631-7.311L216.028,141.3Z" transform="translate(-200.742 -3.163)" fill="#2e313f"/>
          <g id="Group_18234" data-name="Group 18234" transform="translate(42.868 59.047)">
            <path id="Path_73392" data-name="Path 73392" d="M196.723,144.157a37.273,37.273,0,0,1,2.374,5.092,58.441,58.441,0,0,0,9.192-3.341l-7.4-2.309Z" transform="translate(-173.976 -56.867)" fill="#ff915b"/>
            <path id="Path_73393" data-name="Path 73393" d="M198.229,205.23l18.609-85.071,2.326-2.658s5.317,7.643,6.646.332v.332l2.991,5.649s-1.662,47.853,1,83.077h0l-5.982-2.326-3.988.332a35.693,35.693,0,0,1,2.326,4.985,62.322,62.322,0,0,1-25.255.332Z" transform="translate(-196.9 -117.5)" fill="#ff915b"/>
          </g>
          <path id="Path_73394" data-name="Path 73394" d="M199.4,226.988a84.091,84.091,0,0,0,26.917,8.972,74.623,74.623,0,0,0,8.308.665L252.569,136.6l6.314-10.3L245.923,115A210.953,210.953,0,0,0,220,124.969c-1.662,3.655-4.985,16.615-7.643,31.9C206.046,186.779,199.4,226.988,199.4,226.988Z" transform="translate(-191.425 -64.26)" fill="#f56d2a"/>
          <path id="Path_73395" data-name="Path 73395" d="M235.748,145.031l-38.548.332,2.658-11.963,28.579,4.32Z" transform="translate(-160.978 -21.515)" fill="#ffb9b9"/>
          <path id="Path_73396" data-name="Path 73396" d="M197.628,114.3l6.646,9.3a2.509,2.509,0,0,1,.332,2.658l-1.994,6.646c0,.332-.665.332-1,0l-5.982-8.308Z" transform="translate(-124.852 -65.886)" fill="#e86828"/>
          <path id="Path_73397" data-name="Path 73397" d="M213.751,123.228l-1,9.969s-1.329,12.628-14.954-7.975l3.323-14.622Z" transform="translate(-140.975 -74.482)" fill="#ffb9b9"/>
          <g id="Group_18235" data-name="Group 18235" transform="translate(46.846)">
            <path id="Path_73398" data-name="Path 73398" d="M203.213,108.1a6.351,6.351,0,0,0,2.658,6.979c3.988,2.658,4.32,1,4.32,1l-1.662-2.991Z" transform="translate(-201.541 -80.29)" fill="#440c01"/>
            <path id="Path_73399" data-name="Path 73399" d="M194.3,104.4s5.982,1.329,3.655,6.314c-1.994,4.985-3.323,3.988-3.323,3.988l-1-6.314Z" transform="translate(-158.736 -88.885)" fill="#440c01"/>
            <path id="Path_73400" data-name="Path 73400" d="M197.955,104.4l1.994,10.3-5.649-6.314Z" transform="translate(-162.388 -88.885)" fill="#10283f"/>
            <path id="Path_73401" data-name="Path 73401" d="M209.124,105.5s-5.982-1.329-6.314,3.988c-.332,5.649,7.643,11.631,7.643,11.631l1.662-1.662Z" transform="translate(-202.8 -86.665)" fill="#440c01"/>
            <path id="Path_73402" data-name="Path 73402" d="M223.279,136.2c-2.991,8.308-19.606,11.3-26.917-6.978-6.646-15.951-.332-26.252,8.64-25.92,8.972.665,14.289,4.32,14.289,4.32a61.636,61.636,0,0,1,2.658,9.637,39.134,39.134,0,0,1,1.329,8.308C223.611,129.226,224.608,132.881,223.279,136.2Z" transform="translate(-184.056 -91.446)" fill="#ffb9b9"/>
            <path id="Path_73403" data-name="Path 73403" d="M208.083,110.776s-2.326-2.991-5.317-1c-2.991,2.326-1,7.975,2.326,9.637s5.317-1.662,5.317-1.662Z" transform="translate(-196.109 -77.981)" fill="#ffb9b9"/>
            <path id="Path_73404" data-name="Path 73404" d="M199.17,126.533s-1.329-9.3-.332-8.972,24.923-1,24.259-8.972c-.665-7.643-8.64-5.982-8.64-5.982S185.213,103.936,199.17,126.533Z" transform="translate(-189.191 -93.406)" fill="#440c01"/>
            <path id="Path_73405" data-name="Path 73405" d="M195.917,119.9s-2.991-8.64,5.982-11.3c8.972-2.326,6.979-1.662,10.634-6.314s11.631-2.326,12.628,1.994a11.132,11.132,0,0,1-1.994,8.64Z" transform="translate(-191.587 -99.731)" fill="#440c01"/>
            <path id="Path_73406" data-name="Path 73406" d="M195.975,103.5s7.643-3.655,8.308,1.329c1,7.311-10.3,9.969-10.3,9.969Z" transform="translate(-165.725 -93.97)" fill="#440c01"/>
            <path id="Path_73408" data-name="Path 73408" d="M206.088,109.488a16.844,16.844,0,0,0-.665,12.628l-3.323-8.972,1.662-7.643Z" transform="translate(-194.447 -86.33)" fill="#440c01"/>
          </g>
          <path id="Path_73412" data-name="Path 73412" d="M211.686,131.087a1.642,1.642,0,0,0,.332-2.326l-8.308-15.286c0-.332-.665-.332-1,0l-3.323,4.32v.665l3.988,17.945a.637.637,0,0,0,1,.332Z" transform="translate(-144.892 -68.384)" fill="#e86828"/>
          <path id="Path_73413" data-name="Path 73413" d="M200.185,206.691h0s1.994,7.311,1.994,21.932v.332c2.991-13.957-1-106.339-1-106.339l-5.317-5.317v.332l2.991,5.649C199.188,123.614,197.195,172.131,200.185,206.691Z" transform="translate(-124.087 -58.917)" fill="#e86828"/>
          <path id="Path_73414" data-name="Path 73414" d="M221.537,135.8a25.088,25.088,0,0,1-16.615,7.311A16.3,16.3,0,0,1,190.3,135.8Z" transform="translate(-123.838 -15.94)" fill="#ffb9b9"/>
          <g id="Group_18237" data-name="Group 18237" transform="translate(49.846 79.651)">
            <path id="Path_73415" data-name="Path 73415" d="M200.6,134h0l7.975,2.326L214.225,134Z" transform="translate(-200.6 -99.772)" fill="#757384"/>
            <g id="Group_18236" data-name="Group 18236" transform="translate(7.643)">
              <path id="Path_73416" data-name="Path 73416" d="M179.873,160.254h63.471l7.311-23.262,3.655-11.963c.332-.665-.332-1.329-1-1.329H189.178l-6.646,26.252v.332Z" transform="translate(-179.541 -123.7)" fill="#3f3d56"/>
              <rect id="Rectangle_11342" data-name="Rectangle 11342" width="63.471" height="3.988" transform="translate(0 36.554)" fill="#3f3d56"/>
            </g>
            <path id="Path_73417" data-name="Path 73417" d="M202.3,134h0l.332,3.323,7.643,2.659v-3.655Z" transform="translate(-202.3 -99.772)" fill="#3f3d56"/>
          </g>
          <path id="Path_73418" data-name="Path 73418" d="M210.93,123.762h-1.662l-9.7,36.06,1.92.484Z" transform="translate(-143.441 -44.047)" fill="#757384"/>
          <path id="Path_73422" data-name="Path 73422" d="M236.117,207.154c-21.932-28.911-9.969-76.1-9.637-77.428L221.5,127.4c-5.982,30.24-12.3,70.782-12.3,70.782A89.569,89.569,0,0,0,236.117,207.154Z" transform="translate(-201.225 -35.454)" fill="#e86828"/>
          <path id="Path_73423" data-name="Path 73423" d="M238.632,187.885a3.341,3.341,0,0,0,3.655-1.662l1-3.655,3.988-11.3L229.66,160.636a4.739,4.739,0,0,1-1.994-4.985l6.646-26.917L224.675,118.1a1.029,1.029,0,0,0-.665.332c-3.323,1.994-16.615,10.634-19.274,30.572C200.417,182.9,229.328,184.562,238.632,187.885Z" transform="translate(-196.097 -57.059)" fill="#f56d2a"/>
          <path id="Path_73424" data-name="Path 73424" d="M240.1,187.885a3.341,3.341,0,0,0,3.655-1.662l1-3.655c-3.988-.332-25.588-3.323-33.563-24.923-7.975-21.268,9.637-36.554,13.957-39.545-3.323,1.994-16.615,10.634-19.274,30.572C201.887,182.9,230.8,184.562,240.1,187.885Z" transform="translate(-197.567 -57.059)" fill="#e86828"/>
          <path id="Path_73425" data-name="Path 73425" d="M208.713,149.112s8.972-17.612,0-29.908C208.38,118.871,214.694,133.825,208.713,149.112Z" transform="translate(-176.146 -54.507)" fill="#e86828"/>
        </g>
      </g>
      <g id="Group_18247" data-name="Group 18247" transform="translate(1327.341 604.921)">
        <ellipse id="Ellipse_173" data-name="Ellipse 173" cx="67.949" cy="12.187" rx="67.949" ry="12.187" transform="translate(0 294.055)" fill="#fdf0e9"/>
        <g id="Group_18231" data-name="Group 18231" transform="translate(34.219)">
          <path id="Path_73364" data-name="Path 73364" d="M198.468,292.608a2.369,2.369,0,0,0-1-1.994,13.87,13.87,0,0,0-2.658-1.994c-1-.665-1.994-1-2.991-1.662a4.724,4.724,0,0,0-1.994-.665H189.5c-1-1.329-2.326-1.329-3.655-1.994a13.722,13.722,0,0,1-3.655-2.326A11.287,11.287,0,0,1,179.194,275a40.034,40.034,0,0,1-.332-10.966c0-3.655.332-7.643.665-11.3.332-3.988,1-8.308,1-12.3.332-3.323.332-6.646.332-9.637,0-3.655-.665-7.975-1-11.631a92,92,0,0,1-1-9.969c0-3.655.332-7.311,0-10.966,0-1.994-.332-3.655-.332-5.982a9.2,9.2,0,0,0-.332-2.991c1.662-.332,3.323-.665,5.649-1a80.389,80.389,0,0,0-5.982-11.963c-3.988,1.329-8.64,2.991-12.628,4.32H164.9v.332c-2.991,1-6.314,2.326-9.3,3.323,0,3.655.332,7.643.332,11.3,1.329-.332,2.991-1,4.32-1.329.665,2.326,1.662,4.32,2.326,7.311a30.17,30.17,0,0,1,1,7.643c.332,6.314,0,11.963.332,18.277a158.7,158.7,0,0,0,1.994,17.612,177.9,177.9,0,0,1,2.326,18.609,89.527,89.527,0,0,1-2.326,18.942l-.332-.332a.325.325,0,0,0-.332.332,10.3,10.3,0,0,0-1.662,5.649,10.409,10.409,0,0,0,.665,6.314C165.237,297.261,198.468,293.273,198.468,292.608Z" transform="translate(-141.976 13.262)" fill="#fca9a9"/>
          <path id="Path_73365" data-name="Path 73365" d="M156.251,208.2a9.194,9.194,0,0,0-1.662,5.317,12.369,12.369,0,0,0,.665,5.982c1,2.658,4.32,2.658,6.979,2.991,5.982.332,11.631,0,17.28,0,5.317,0,10.3.332,15.619-.332a2.587,2.587,0,0,0,2.326-1,2.918,2.918,0,0,0,.332-2.326,2.244,2.244,0,0,0-1.329-1.994c-1.662-1.329-3.988-1.994-6.646-2.658-1-.332-2.326-1-3.323-1.329a4.723,4.723,0,0,0-1.994-.665c-.665,0-.332.665-.332,1.329-.332,1.994-2.326,2.991-4.32,2.991a25.188,25.188,0,0,1-6.978-.332,69.934,69.934,0,0,1-7.975-1.994,26.354,26.354,0,0,1-5.317-2.658c-.665-.665-1.329-1.662-2.326-2.658a4.12,4.12,0,0,0-1-.664Z" transform="translate(-136.977 87.369)" fill="#414453"/>
          <path id="Path_73366" data-name="Path 73366" d="M153.541,160.1s22.265-3.655,25.92-6.646c2.326-1.994,5.649-3.655,7.975-7.311,1.662-2.326,1.994-3.655,4.32-6.646a59.813,59.813,0,0,1,4.985-5.317c1.329-1.329,3.655-3.323,6.646-5.982,1.662,0,1.994.332,1.994.665.332,1-2.326,1.994-3.988,5.317a5.3,5.3,0,0,0-1,2.659c.665.332,4.32,1.994,4.32,4.985a3.59,3.59,0,0,1-1,2.326c-2.326,2.658-10.634,7.643-10.634,7.643a73.433,73.433,0,0,1-8.308,7.643c-3.655,2.326-23.594,21.268-36.886,20.936C149.553,174.059,151.547,167.08,153.541,160.1Z" transform="translate(-122.636 -98.479)" fill="#ffb9b9"/>
          <g id="Group_18208" data-name="Group 18208" transform="translate(10.546 204.516)">
            <g id="Group_18203" data-name="Group 18203">
              <path id="XMLID_14_" d="M189.064,275.841l-3.988-1.994c-1.329-.665-2.991-1.329-4.32-1.994-1.994-1.329-2.991-3.323-3.988-5.982a30.021,30.021,0,0,1-1.329-9.3c0-2.991,0-6.314.332-9.637.332-3.655,1-7.311,1.329-10.634.332-2.658.665-5.982,1-8.64v-9.969a31.053,31.053,0,0,1,.665-7.975c.665-2.991,1.994-5.982,2.326-8.64a37.585,37.585,0,0,1,1.329-4.985,20.293,20.293,0,0,0,1-4.32c0-.665.332-1.662.332-2.326l-11.963-8.64-8.972,7.643v10.634a27.681,27.681,0,0,1-1,7.311,148.246,148.246,0,0,0-2.326,16.948c-.332,5.649.332,10.634,1,16.283,1,5.649,1.994,10.966,2.658,16.615a46.774,46.774,0,0,1-1,16.615l6.978,12.96,24.259-1.329Z" transform="translate(-159.4 -180.8)" fill="#ffb9b9"/>
            </g>
            <g id="Group_18207" data-name="Group 18207">
              <g id="Group_18206" data-name="Group 18206">
                <g id="Group_18205" data-name="Group 18205">
                  <g id="Group_18204" data-name="Group 18204" clip-path="url(#clip-path)">
                    <path id="Path_73367" data-name="Path 73367" d="M160.7,191.234s12.96.665,17.945,1a126.412,126.412,0,0,1,13.957,2.326l-2.326-12.96-26.252-1Z" transform="translate(-162.938 -181.265)" fill="#ffb9b9"/>
                  </g>
                </g>
              </g>
            </g>
          </g>
          <path id="Path_73369" data-name="Path 73369" d="M158.25,208.2a9.194,9.194,0,0,0-1.662,5.317,12.369,12.369,0,0,0,.665,5.982c1,2.658,4.32,2.658,6.979,2.991,5.982.332,11.631,0,17.28,0,5.317,0,10.3.332,15.619-.332a2.587,2.587,0,0,0,2.326-1,2.918,2.918,0,0,0,.332-2.326,2.244,2.244,0,0,0-1.329-1.994c-1.662-1.329-3.988-1.994-6.646-2.658-1-.332-2.326-1-3.323-1.329a4.723,4.723,0,0,0-1.994-.665c-.665,0-.332.665-.332,1.329-.332,1.994-2.326,2.991-4.32,2.991a25.188,25.188,0,0,1-6.979-.332,69.936,69.936,0,0,1-7.975-1.994,26.355,26.355,0,0,1-5.317-2.658c-.665-.665-1.329-1.662-2.326-2.658a4.117,4.117,0,0,0-1-.664Z" transform="translate(-145.623 87.369)" fill="#333643"/>
          <path id="Path_73370" data-name="Path 73370" d="M197.944,141.334c1-2.658,1.329-11.631-3.988-17.612-6.646-6.646-18.609-5.317-24.923.332-3.323,2.991-4.32,6.979-5.649,15.619-2.658,20.936-1.329,32.9-1.329,32.9a498.786,498.786,0,0,1,2.326,58.819c11.3,3.323,17.28.332,19.606-1,11.963-7.643,14.289-33.9-.332-63.8,3.323-4.985,6.978-9.637,10.3-14.622C195.285,148.645,196.282,144.99,197.944,141.334Z" transform="translate(-161.722 -119.256)" fill="#440c01"/>
          <g id="Group_18218" data-name="Group 18218" transform="translate(9.969 13.283)">
            <g id="Group_18209" data-name="Group 18209">
              <path id="XMLID_10_" d="M184.859,130.387c.332,1.329,1.329,3.323,1.329,3.988.332.332,4.985,3.323,5.649,4.32.665,1.329-1.994,1.994-1.994,1.994a14.025,14.025,0,0,0,0,5.317c.332,2.326,1.329,3.323,1,5.317-.332,1.329-1,3.323-2.658,3.655-1,.332-1.662,0-3.988-.665a24.837,24.837,0,0,1-3.655-.665,38,38,0,0,0-1,9.3,51.565,51.565,0,0,0,2.326,14.622c-7.311-3.988-14.622-8.308-21.6-12.3.665-.332,7.311-5.317,6.979-12.628a11.189,11.189,0,0,0-2.326-6.646,5.831,5.831,0,0,1-3.655-2.326c-1-1.662-1.329-4.985,0-5.317a3.018,3.018,0,0,1,3.655,1.329c1.662-.332,2.658-3.655,3.323-5.317,1.662-3.655.665-7.311,0-10.966,0-.665,1.994,1,2.658,1.329C173.228,126.732,177.548,129.058,184.859,130.387Z" transform="translate(-160.268 -123.253)" fill="#ffb9b9"/>
            </g>
            <g id="Group_18217" data-name="Group 18217">
              <g id="Group_18216" data-name="Group 18216">
                <g id="Group_18215" data-name="Group 18215">
                  <g id="Group_18214" data-name="Group 18214" clip-path="url(#clip-path-2)">
                    <path id="Path_73373" data-name="Path 73373" d="M174,136.776c-.665.332-5.649-1.994-9.969-5.982-1.994-1.662,9.637,12.628,9.637,12.628Z" transform="translate(-154.061 -106.048)" fill="#f99f9f"/>
                  </g>
                </g>
              </g>
            </g>
          </g>
          <g id="Group_18224" data-name="Group 18224" transform="translate(1.661 126.423)">
            <g id="Group_18219" data-name="Group 18219">
              <path id="SVGID_1_" d="M202.665,228.414c-.332-1.662-.665-3.323-1-5.317-.665-3.323-1-6.979-1.662-10.3l-1-9.969c-.332-3.323,0-6.979-.332-9.969-.332-1.662-.332-3.323-.665-5.649,0-1.329-.332-2.658-.332-3.988s2.991-21.268,3.323-22.929L185.053,157.3l-19.274,5.982c-1.662,2.658-3.323,5.982-4.985,9.3a19.389,19.389,0,0,0-1.994,8.64,51.308,51.308,0,0,0,1.329,9.969,52.1,52.1,0,0,0,3.323,9.3,7.821,7.821,0,0,1,.665,2.658v3.988l-1,10.966c-.332,2.991-.665,6.314-1.329,9.637-.332,1.994-1.329,7.643-1.329,8.308v1c0,1.329,1.994,1.329,2.991,1.329,2.658.665,5.317,2.658,7.975,3.323,2.991,1,6.314.665,9.637.665s6.978.332,10.3,0c2.326-.332,5.649-.332,7.975-1.662,1.329-.665,1.994-2.326,2.326-3.655A18.738,18.738,0,0,1,203,233.067a2.52,2.52,0,0,0,.665-1.329A12.652,12.652,0,0,0,202.665,228.414Z" transform="translate(-158.8 -157.3)" fill="#333643"/>
            </g>
          </g>
          <g id="Group_18230" data-name="Group 18230" transform="translate(3.909 51.813)">
            <g id="Group_18225" data-name="Group 18225">
              <path id="XMLID_17_" d="M195.4,216.437a5.654,5.654,0,0,0,2.326-.332c.332,0,.332,0,.665-.332s0-1.329,0-1.662c-1-4.32-.665-9.637-.665-14.289,0-5.317.332-9.969.665-15.286a45.406,45.406,0,0,1,.665-6.314c.665-1.994,1.662-3.988,2.658-6.314a11.4,11.4,0,0,0-1-9.3c-1-1.994-2.658-3.323-4.32-5.317a51.12,51.12,0,0,0-3.988-4.32c-1.662-1.662-3.323-3.655-5.317-5.649-1.662-1.662-3.323-3.655-5.317-5.649-1.662-1.329-3.323-2.658-5.317-3.988a26.492,26.492,0,0,0-5.317-2.658c-2.658-.665-5.982.665-7.975,2.658-2.991,2.658-3.988,6.979-4.32,10.966a46.8,46.8,0,0,0-.332,6.979s-1.329-1.329,6.978,33.9a4.724,4.724,0,0,0,.665,1.994c.332.665.665,1,.665,1.662s-.332,1-1,1.662a3,3,0,0,0-.332,1.662c0,.665-.332,1,0,1.662.332,1,1.329,1.662,1.329,2.658,0,4.32-4.32,11.963-4.32,12.628s1,.665,1.329,1a16.5,16.5,0,0,0,5.982.665H184.1Z" transform="translate(-158.431 -134.848)" fill="#f56d2a"/>
            </g>
            <g id="Group_18229" data-name="Group 18229">
              <g id="Group_18228" data-name="Group 18228">
                <g id="Group_18227" data-name="Group 18227">
                  <g id="Group_18226" data-name="Group 18226" clip-path="url(#clip-path-5)">
                    <path id="Path_73377" data-name="Path 73377" d="M165,142.2s2.659,23.594,4.985,28.911c1.994,5.649,11.631,15.619,11.631,15.619l-10.966-43.865Z" transform="translate(-159.605 -117.768)" fill="#e86828"/>
                  </g>
                </g>
              </g>
            </g>
          </g>
          <path id="Path_73379" data-name="Path 73379" d="M200.867,234.2c-.332-2.326-1.994-2.991-3.655-6.646-1.662-3.323-3.655-6.979-5.317-10.3a62.7,62.7,0,0,1-4.32-10.966c-1-3.655-1.994-7.643-3.323-11.3A67.165,67.165,0,0,1,180.6,184.35c-.665-3.655-1-7.975-1.329-11.631s-.665-7.975-1-11.631c0-1.662-.332-3.655-.332-5.649a4.215,4.215,0,0,1,.332-1.994,29.5,29.5,0,0,0,.332-7.643,15.815,15.815,0,0,0-2.658-5.982c-1.662-1.662-3.988-3.323-6.646-2.991-6.314,1-12.3,12.96-12.3,17.612a5.655,5.655,0,0,0,.332,2.326c.665,1.329,2.326,1.662,3.323,2.658,1.329,3.655,1.994,7.643,2.991,11.3s1.662,7.311,2.326,10.966a69.569,69.569,0,0,0,2.658,11.963,46.829,46.829,0,0,0,5.649,10.634c1.994,3.323,3.988,6.646,6.314,9.969a61.809,61.809,0,0,0,6.979,9.3c1.329,1.662,3.655,3.655,3.988,6.314,1,8.308,3.655,9.969,2.991,12.96a16.836,16.836,0,0,0-.665,4.32,2.539,2.539,0,0,0,.665,1.662c1,.665,2.326-1.662,2.658-2.326C200.535,234.529,201.864,239.181,200.867,234.2Z" transform="translate(-148.695 -78.53)" fill="#ffb9b9"/>
        </g>
      </g>
    </g>
  </g>
</svg>
